<?xml version="1.0" encoding="UTF-8"?>
<!DOCTYPE svg PUBLIC "-//W3C//DTD SVG 1.1//EN" "http://www.w3.org/Graphics/SVG/1.1/DTD/svg11.dtd">
<!-- Creator: CorelDRAW 2017 -->
<svg xmlns="http://www.w3.org/2000/svg" xml:space="preserve" width="512px" height="512px" version="1.1" style="shape-rendering:geometricPrecision; text-rendering:geometricPrecision; image-rendering:optimizeQuality; fill-rule:evenodd; clip-rule:evenodd"
viewBox="0 0 512 511.997"
 xmlns:xlink="http://www.w3.org/1999/xlink">
 <defs>
  <style type="text/css">
   <![CDATA[
    .fil3 {fill:none;fill-rule:nonzero}
    .fil0 {fill:#181F6D;fill-rule:nonzero}
    .fil1 {fill:white;fill-rule:nonzero}
    .fil2 {fill:white;fill-rule:nonzero}
   ]]>
  </style>
   <clipPath id="id0" style="clip-rule:nonzero">
    <path d="M512 255.999c0,141.385 -114.616,255.998 -256.001,255.998 -141.386,0 -255.999,-114.613 -255.999,-255.998 0,-141.384 114.613,-255.999 255.999,-255.999 141.385,0 256.001,114.615 256.001,255.999z"/>
   </clipPath>
 </defs>
 <g id="Camada_x0020_1">
  <metadata id="CorelCorpID_0Corel-Layer"/>
  <path class="fil0" d="M512 255.999c0,141.385 -114.616,255.998 -256.001,255.998 -141.386,0 -255.999,-114.613 -255.999,-255.998 0,-141.384 114.613,-255.999 255.999,-255.999 141.385,0 256.001,114.615 256.001,255.999z"/>
  <g style="clip-path:url(#id0)">
   <g id="_2444030980016">
    <g>
     <path id="1" class="fil1" d="M378.017 109.831c0,0 4.375,-39.37 -17.498,-57.743 0,0 6.125,17.498 -5.685,24.06 0,0 -25.812,-92.738 -148.733,-53.369 0,0 67.806,3.938 81.365,45.933 0,0 -127.737,-69.992 -213.476,47.244 0,0 -43.306,61.243 -38.058,102.8 0,0 37.621,-57.305 101.927,-78.74 0,0 -105.837,73.01 -78.741,201.665 0,0 7.438,-42.434 25.372,-57.745 0,0 -5.904,65.75 29.747,103.677 41.12,43.743 30.184,93.613 30.184,93.613 0,0 28.871,-63.429 9.187,-102.8 -19.687,-39.371 -60.172,-110.968 -35.237,-144.214l-21.186 11.235c0,0 32.421,-78.324 94.696,-69.015 0,0 -50.522,-31.605 -11.592,-74.037 0,0 10.937,-14.436 35.436,-12.249 13.6,1.215 29.015,10.693 43.743,31.059l59.931 -18.373c0,0 3.498,-31.495 -10.937,-47.244 0,0 26.322,26.763 26.069,42.472l43.486 11.771z"/>
     <path class="fil1" d="M448.008 195.57c0,0 -16.94,10.702 -19.565,21.199 -1.544,6.186 -1.05,19.645 1.942,25.468 2.087,4.064 0.394,5.625 6.69,6.703 15.308,2.626 21.87,-17.061 19.247,-27.558 -2.626,-10.5 -5.714,-16.702 -8.314,-25.812z"/>
     <path class="fil2" d="M218.348 150.514c0,0 -0.437,-20.122 24.935,-25.372 0,0 -18.371,-17.498 -34.559,-6.562 -16.185,10.937 9.624,31.934 9.624,31.934zm130.168 -10.165l-36.013 -2.911c0,0 -16.001,4.729 -18.913,10.913l66.929 10.913 -7.637 -7.639 -4.366 -11.276zm-96.046 -27.018c0,0 73.49,-25.81 111.548,-11.373 0,0 46.59,29.965 54.464,42.214 0,0 -6.715,0.802 -22.749,0 0,0 8.75,8.748 22.749,13.561 13.999,4.811 28.871,24.496 28.871,24.496 0,0 -0.876,10.5 -17.061,9.188 -16.185,-1.314 -22.746,-4.376 -29.308,-3.939 -6.56,0.44 -16.185,4.812 -22.309,1.749 0,0 8.748,19.251 22.746,19.251 13.999,0 26.36,10.84 18.05,36.648 0,0 -56.207,35.407 -94.602,3.159 -20.959,-17.604 3.123,-44.86 12.746,-46.173 0,0 -13.754,-3.742 -31.137,-4.814 -26.001,-1.605 -44.298,23.432 -65.805,-12.198 0,0 -6.789,18.216 10.272,31.779 0,0 -38.064,-8.401 -33.253,-28.088 0,0 -12.65,52.804 20.734,71.423 45.691,25.481 50.718,60.99 50.718,60.99 0,0 13.973,-24.348 6.099,-41.409 0,0 93.055,45.479 106.178,105.847 0,0 22.505,-34.839 54.002,-67.648 0,0 -7.852,45.12 -14.413,65.243 -3.281,10.057 -15.749,80.928 -120.735,104.987 0,0 100.48,-68.794 10.6,-143.266 0,0 -12.131,44.186 -22.631,64.746 0,0 -36.482,-81.775 -64.04,-105.834 0,0 0.61,50.279 7.171,59.462 0,0 -95.363,-116.36 -45.492,-187.227 0,0 -45.496,-28.434 -20.124,-64.305 25.373,-35.871 66.711,1.531 66.711,1.531z"/>
     <path class="fil1" d="M165.418 227.943c0,0 -40.245,46.805 3.499,128.173 0,0 19.246,33.247 6.56,66.052 0,0 22.75,-17.058 19.251,-52.053 0,0 58.178,115.923 15.746,182.852 0,0 92.304,-66.056 61.243,-160.106 0,0 -2.623,24.059 -17.497,48.558 0,0 -3.936,-67.368 -49.432,-108.925 -53.511,-48.883 -39.37,-104.551 -39.37,-104.551z"/>
     <path class="fil1" d="M453.915 275.407c-2.624,-12.25 -13.585,-12.889 -23.209,-15.514 -9.624,-2.626 -33.66,7.639 -48.096,12.014 -14.435,4.373 -45.932,-8.313 -45.932,-8.313 0.032,0.087 0.067,0.17 0.099,0.256l-0.125 -0.106c0,0 7.704,34.669 19.902,46.546 0,0 -1.836,-16.712 16.737,-0.331 0,0 26.277,19.27 20.5,32.431 0,0 42.594,-10.953 53.719,-40.787 0,0 6.638,-11.308 6.405,-20.348 0.33,-2.25 0.343,-4.243 0,-5.848z"/>
     <path class="fil1" d="M325.738 218.163c0,0 -36.594,-2.568 -64.842,4.814 0,0 45.582,-6.74 70.942,3.211l-6.1 -8.025z"/>
     <path class="fil1" d="M334.726 230.039c0,0 -36.593,-2.567 -64.842,4.815 0,0 45.582,-6.74 70.942,3.211l-6.1 -8.026z"/>
     <path class="fil1" d="M345.64 239.028c0,0 -36.593,-2.568 -64.842,4.814 0,0 45.582,-6.74 70.942,3.211l-6.1 -8.025z"/>
    </g>
   </g>
  </g>
  <path class="fil3" d="M512 255.999c0,141.385 -114.616,255.998 -256.001,255.998 -141.386,0 -255.999,-114.613 -255.999,-255.998 0,-141.384 114.613,-255.999 255.999,-255.999 141.385,0 256.001,114.615 256.001,255.999z"/>
 </g>
</svg>
