<?xml version="1.0" encoding="UTF-8"?>
<!DOCTYPE svg PUBLIC "-//W3C//DTD SVG 1.1//EN" "http://www.w3.org/Graphics/SVG/1.1/DTD/svg11.dtd">
<!-- Creator: CorelDRAW 2017 -->
<svg xmlns="http://www.w3.org/2000/svg" xml:space="preserve" width="1750px" height="2243px" version="1.1" style="shape-rendering:geometricPrecision; text-rendering:geometricPrecision; image-rendering:optimizeQuality; fill-rule:evenodd; clip-rule:evenodd"
viewBox="0 0 1672.129 2142.467"
 xmlns:xlink="http://www.w3.org/1999/xlink">
 <defs>
  <style type="text/css">
   <![CDATA[
    .fil0 {fill:white;fill-rule:nonzero}
   ]]>
  </style>
 </defs>
 <g id="Camada_x0020_1">
  <metadata id="CorelCorpID_0Corel-Layer"/>
  <g id="_2706338237856">
   <path class="fil0" d="M1359.174 384.065c0,0 17.36,-156.223 -69.435,-229.129 0,0 24.306,69.435 -22.556,95.471 0,0 -102.426,-367.994 -590.187,-211.77 0,0 269.059,15.624 322.862,182.263 0,0 -506.869,-277.734 -847.088,187.471 0,0 -171.844,243.015 -151.019,407.917 0,0 149.285,-227.391 404.456,-312.446 0,0 -419.97,289.71 -312.453,800.223 0,0 29.515,-168.379 100.679,-229.138 0,0 -23.426,260.903 118.037,411.402 163.172,173.574 119.774,371.465 119.774,371.465 0,0 114.563,-251.695 36.456,-407.921 -78.12,-156.227 -238.767,-440.329 -139.822,-572.253l-84.068 44.582c0,0 128.649,-310.796 375.759,-273.857 0,0 -200.475,-125.412 -45.995,-293.788 0,0 43.397,-57.281 140.612,-48.602 53.967,4.818 115.133,42.431 173.574,123.244l237.811 -72.905c0,0 13.883,-124.978 -43.398,-187.471 0,0 104.45,106.201 103.443,168.533l172.558 46.709z"/>
   <path class="fil0" d="M1636.904 724.285c0,0 -67.217,42.467 -77.636,84.121 -6.125,24.546 -4.165,77.953 7.705,101.059 8.282,16.124 1.567,22.319 26.547,26.597 60.745,10.419 86.782,-67.701 76.375,-109.355 -10.419,-41.664 -22.675,-66.273 -32.991,-102.422z"/>
   <path class="fil0" d="M725.592 545.499c0,0 -1.734,-79.847 98.945,-100.679 0,0 -72.898,-69.434 -137.131,-26.037 -64.227,43.398 38.186,126.716 38.186,126.716zm516.521 -40.337l-142.903 -11.549c0,0 -63.496,18.764 -75.049,43.304l265.578 43.301 -30.301 -30.311 -17.325 -44.745zm-381.12 -107.207c0,0 291.614,-102.416 442.633,-45.132 0,0 184.87,118.904 216.118,167.51 0,0 -26.646,3.184 -90.273,0 0,0 34.723,34.712 90.273,53.81 55.548,19.092 114.563,97.205 114.563,97.205 0,0 -3.478,41.664 -67.701,36.456 -64.223,-5.212 -90.259,-17.361 -116.296,-15.631 -26.033,1.747 -64.223,19.095 -88.526,6.942 0,0 34.712,76.389 90.26,76.389 55.547,0 104.6,43.014 71.621,145.424 0,0 -223.033,140.496 -375.389,12.533 -83.164,-69.851 12.394,-178.005 50.58,-183.217 0,0 -54.577,-14.85 -123.555,-19.104 -103.173,-6.369 -175.778,92.983 -261.12,-48.403 0,0 -26.94,72.285 40.761,126.102 0,0 -151.042,-33.335 -131.951,-111.455 0,0 -50.196,209.534 82.275,283.413 181.306,101.112 201.254,242.015 201.254,242.015 0,0 55.444,-96.615 24.2,-164.316 0,0 369.25,180.466 421.324,420.011 0,0 89.302,-138.242 214.284,-268.432 0,0 -31.158,179.039 -57.191,258.889 -13.02,39.907 -62.493,321.129 -479.089,416.598 0,0 398.715,-272.981 42.061,-568.493 0,0 -48.136,175.335 -89.799,256.919 0,0 -144.764,-324.493 -254.119,-419.961 0,0 2.421,199.511 28.458,235.954 0,0 -378.41,-461.728 -180.519,-742.936 0,0 -180.53,-112.829 -79.851,-255.165 100.679,-142.34 264.714,6.075 264.714,6.075z"/>
   <path class="fil0" d="M515.562 852.744c0,0 -159.694,185.727 13.883,508.6 0,0 76.373,131.927 26.034,262.103 0,0 90.273,-67.687 76.389,-206.553 0,0 230.856,459.994 62.48,725.573 0,0 366.27,-262.115 243.018,-635.313 0,0 -10.406,95.468 -69.431,192.682 0,0 -15.618,-267.324 -196.147,-432.226 -212.337,-193.97 -156.226,-414.866 -156.226,-414.866z"/>
   <path class="fil0" d="M1660.343 1041.085c-10.409,-48.609 -53.907,-51.143 -92.093,-61.562 -38.19,-10.419 -133.567,30.314 -190.849,47.675 -57.281,17.351 -182.263,-32.988 -182.263,-32.988 0.127,0.344 0.267,0.674 0.394,1.017l-0.497 -0.42c0,0 30.571,137.568 78.973,184.697 0,0 -7.285,-66.313 66.414,-1.314 0,0 104.27,76.467 81.344,128.69 0,0 169.016,-43.461 213.164,-161.845 0,0 26.34,-44.875 25.413,-80.744 1.31,-8.929 1.36,-16.837 0,-23.206z"/>
   <path class="fil0" d="M1151.727 813.934c0,0 -145.207,-10.189 -257.299,19.105 0,0 180.873,-26.747 281.502,12.74l-24.203 -31.845z"/>
   <path class="fil0" d="M1187.393 861.063c0,0 -145.207,-10.189 -257.299,19.105 0,0 180.873,-26.747 281.502,12.739l-24.203 -31.844z"/>
   <path class="fil0" d="M1230.701 896.729c0,0 -145.207,-10.19 -257.299,19.104 0,0 180.872,-26.746 281.501,12.74l-24.202 -31.844z"/>
  </g>
 </g>
</svg>
